<svg xmlns="http://www.w3.org/2000/svg" width="1600" height="300" viewBox="0 0 1600 300">
  <defs>
    <style>
      .cls-1 {
        fill: #f08a34;
        fill-rule: evenodd;
      }
    </style>
  </defs>
  <path id="Color_Fill_1" data-name="Color Fill 1" class="cls-1" d="M50,100l618,1v1l-26,71h75q0.5,1.5,1,3l-9,25-122-1v-1q15.5-41,31-82l-8-10h-2q-4,11-8,22H560l-27,72c-13.451.272-35.128,2.586-45-2l27-70c-10.276.356-21.984,0.635-28-3l-14-20-2,1q-4,11-8,22H423l-27,72c-13.451.272-35.128,2.586-45-2l27-70c-10.276.356-21.984,0.635-28-3l-15-20v2l-36,93-44-1,10-29v-1l-39,1-11,30-44-1v-1q15.5-41,31-82l-8-10-2,1c-3.689,20.345-13.878,33.97-32,40v1c6.435-.244,12.228.158,16,2l-19,50L29,200v-1l31-82C54.807,113.02,49.318,106.986,50,100Zm690,0h845v2c1.64,6.87-5.66,18.361-8,26-19.61,4.69-80.03-6.612-87,8v1l82,1v1q-11.505,31-23,62l-128-1v-1l9-26h84l3-8-82-1v-1q8.505-23,17-46l-9-11c-0.67.333-1.33,0.667-2,1q-4.005,11-8,22h-40q-13.5,36-27,72c-13.45.272-35.13,2.586-45-2q13.5-35,27-70c-10.28.356-21.98,0.635-28-3l-15-20v2q-18,46.5-36,93l-44-1q4.995-14.5,10-29v-1l-39,1q-5.505,15-11,30l-44-1v-1q15.495-41,31-82-4.005-5-8-10h-2q-4.005,11-8,22h-40q-13.5,36-27,72c-13.45.272-35.13,2.586-45-2q13.5-35,27-70c-10.28.356-21.98,0.635-28-3l-15-20v2q-4.5,10.5-9,21c-17.026,9.584-76.567-12.062-86,7v1l82,1v1q-11.5,31-23,62l-128-1v-1l9-26h84l3-8-82-1v-1l17-46-10-11v2l-8,21c-19.45-.443-81.581-4.473-87,7v1l82,1v1l-9,26-85,1q-1,3.5-2,7l82,1v1l-9,26-128-1v-1q15.5-41,31-82C744.807,113.02,739.318,106.986,740,100ZM101,129l-3,8c15.336,0.4,19.537-3.4,29-7v-1H101Zm142,0q-2.5,6.5-5,13l39-1,4-12H243Zm970,0q-2.505,6.5-5,13l39-1q1.995-6,4-12h-38ZM87,165l-3,8h38l3-8H87Z"/>
</svg>
